<svg id="Layer_1" data-name="Layer 1" xmlns="http://www.w3.org/2000/svg" xmlns:xlink="http://www.w3.org/1999/xlink" viewBox="0 0 408.3 336.39"><defs><style>.cls-1{fill:url(#linear-gradient);}.cls-2{fill:url(#linear-gradient-2);}.cls-3{fill:url(#linear-gradient-3);}.cls-4{fill:url(#linear-gradient-4);}.cls-5{fill:url(#linear-gradient-5);}.cls-6{fill:url(#linear-gradient-6);}.cls-7{fill:url(#linear-gradient-7);}.cls-8{fill:none;}.cls-9{fill:url(#linear-gradient-8);}.cls-10{fill:url(#linear-gradient-9);}</style><linearGradient id="linear-gradient" x1="276.73" y1="56.35" x2="378.38" y2="306.28" gradientUnits="userSpaceOnUse"><stop offset="0" stop-color="#252091"/><stop offset="0.5" stop-color="#2886ff"/><stop offset="1" stop-color="#35eefe"/></linearGradient><linearGradient id="linear-gradient-2" x1="24.03" y1="1.77" x2="24.03" y2="234.84" gradientUnits="userSpaceOnUse"><stop offset="0" stop-color="#230045"/><stop offset="0.34" stop-color="#530c9e"/><stop offset="0.67" stop-color="#d55adc"/><stop offset="1" stop-color="#f3a1c6"/></linearGradient><linearGradient id="linear-gradient-3" x1="25.57" y1="-14" x2="152.46" y2="205.78" gradientUnits="userSpaceOnUse"><stop offset="0" stop-color="#d13cb1"/><stop offset="0.35" stop-color="#f087ff"/><stop offset="1" stop-color="#d13cb1"/></linearGradient><linearGradient id="linear-gradient-4" x1="245.51" y1="1.77" x2="245.51" y2="234.84" xlink:href="#linear-gradient-2"/><linearGradient id="linear-gradient-5" x1="111.57" y1="131.88" x2="274.55" y2="37.78" gradientUnits="userSpaceOnUse"><stop offset="0" stop-color="#530c9e"/><stop offset="0.65" stop-color="#f087ff"/><stop offset="1" stop-color="#d13cb1"/></linearGradient><linearGradient id="linear-gradient-6" x1="325.34" y1="328.2" x2="205.97" y2="229.48" gradientUnits="userSpaceOnUse"><stop offset="0" stop-color="#252091"/><stop offset="0.59" stop-color="#2886ff"/><stop offset="1" stop-color="#2fc1fe"/></linearGradient><linearGradient id="linear-gradient-7" x1="322.85" y1="343.71" x2="378.66" y2="202.46" gradientUnits="userSpaceOnUse"><stop offset="0" stop-color="#8cffff" stop-opacity="0.7"/><stop offset="1" stop-color="#8cffff" stop-opacity="0"/></linearGradient><linearGradient id="linear-gradient-8" x1="140.12" y1="183.27" x2="52.04" y2="0.41" gradientUnits="userSpaceOnUse"><stop offset="0" stop-color="#f6c0c0" stop-opacity="0.4"/><stop offset="1" stop-color="#f6a7a7" stop-opacity="0.15"/></linearGradient><linearGradient id="linear-gradient-9" x1="148.32" y1="172.61" x2="218.3" y2="13.07" gradientUnits="userSpaceOnUse"><stop offset="0" stop-color="#230045" stop-opacity="0.15"/><stop offset="1" stop-color="#230045" stop-opacity="0.05"/></linearGradient></defs><title>Michel Digital final logo-15</title><path class="cls-1" d="M344.23,96.11h-54.5L262,144.16h82.24a16,16,0,0,1,16,16V272.32h0a64.06,64.06,0,0,1-64.07,64.07h48.06a64.07,64.07,0,0,0,64.07-64.07V160.18A64.07,64.07,0,0,0,344.23,96.11Z"/><path class="cls-2" d="M0,0H0A48.06,48.06,0,0,1,48.06,48.06V240.28a0,0,0,0,1,0,0H0a0,0,0,0,1,0,0V0A0,0,0,0,1,0,0Z"/><path class="cls-3" d="M126.38,157.28h0L66,27.75A48.05,48.05,0,0,0,22.42,0H0L88.66,190.11a41.62,41.62,0,0,0,37.72,24h0a41.61,41.61,0,0,0,37.71-24l15.31-32.82C168.9,179.8,136.88,179.8,126.38,157.28Z"/><path class="cls-4" d="M286.35,53.91,252.73,86.82V0a48.06,48.06,0,0,0-48,48.05V195.36Z"/><path class="cls-5" d="M230.33,0a48.05,48.05,0,0,0-43.55,27.75l-60.4,129.53h0c10.5,22.52,42.52,22.52,53,0L252.74,0Z"/><path class="cls-6" d="M360.24,272.32h0a16,16,0,0,1-16,16H252.74V160.18h0L171.07,301.63l33.61-32.91v67.67h91.49A64.06,64.06,0,0,0,360.24,272.32Z"/><path class="cls-7" d="M360.24,160.18V272.32h0a64.06,64.06,0,0,1-64.07,64.07h17a70.09,70.09,0,0,0,70.09-70.09V161.75"/><polygon class="cls-8" points="179.4 157.28 172.72 171.61 172.72 171.61 179.4 157.28"/><path class="cls-9" d="M126.38,157.28h0L66,27.75A48.05,48.05,0,0,0,22.42,0H0A42.86,42.86,0,0,1,38.48,24.74L107,171.61c13,27.92,52.73,27.92,65.75,0l6.68-14.32C168.9,179.8,136.88,179.8,126.38,157.28Z"/><path class="cls-10" d="M252.7,0a42.87,42.87,0,0,0-38.44,24.74L145.77,171.61c-.24.52-.49,1-.75,1.52a28.73,28.73,0,0,1-18.64-15.84h0l60.4-129.53A48.05,48.05,0,0,1,230.34,0Z"/></svg>