<svg id="Layer_1" data-name="Layer 1" xmlns="http://www.w3.org/2000/svg" xmlns:xlink="http://www.w3.org/1999/xlink" viewBox="0 0 689.66 450.25"><defs><style>.cls-1{fill:url(#linear-gradient);}.cls-2{fill:url(#linear-gradient-2);}.cls-3{fill:url(#linear-gradient-3);}.cls-4{fill:url(#linear-gradient-4);}.cls-5{fill:url(#linear-gradient-5);}.cls-6{fill:url(#linear-gradient-6);}.cls-7{fill:url(#linear-gradient-7);}.cls-8{fill:none;}.cls-9{fill:url(#linear-gradient-8);}.cls-10{fill:url(#linear-gradient-9);}.cls-11{fill:#fff;}</style><linearGradient id="linear-gradient" x1="417.41" y1="56.35" x2="519.06" y2="306.28" gradientUnits="userSpaceOnUse"><stop offset="0" stop-color="#252091"/><stop offset="0.5" stop-color="#2886ff"/><stop offset="1" stop-color="#35eefe"/></linearGradient><linearGradient id="linear-gradient-2" x1="164.71" y1="1.77" x2="164.71" y2="234.84" gradientUnits="userSpaceOnUse"><stop offset="0" stop-color="#230045"/><stop offset="0.34" stop-color="#530c9e"/><stop offset="0.67" stop-color="#d55adc"/><stop offset="1" stop-color="#f3a1c6"/></linearGradient><linearGradient id="linear-gradient-3" x1="166.25" y1="-14" x2="293.14" y2="205.78" gradientUnits="userSpaceOnUse"><stop offset="0" stop-color="#d13cb1"/><stop offset="0.35" stop-color="#f087ff"/><stop offset="1" stop-color="#d13cb1"/></linearGradient><linearGradient id="linear-gradient-4" x1="386.2" y1="1.77" x2="386.2" y2="234.84" xlink:href="#linear-gradient-2"/><linearGradient id="linear-gradient-5" x1="252.26" y1="131.88" x2="415.23" y2="37.78" gradientUnits="userSpaceOnUse"><stop offset="0" stop-color="#530c9e"/><stop offset="0.65" stop-color="#f087ff"/><stop offset="1" stop-color="#d13cb1"/></linearGradient><linearGradient id="linear-gradient-6" x1="466.02" y1="328.2" x2="346.65" y2="229.48" gradientUnits="userSpaceOnUse"><stop offset="0" stop-color="#252091"/><stop offset="0.59" stop-color="#2886ff"/><stop offset="1" stop-color="#2fc1fe"/></linearGradient><linearGradient id="linear-gradient-7" x1="463.53" y1="343.71" x2="519.35" y2="202.46" gradientUnits="userSpaceOnUse"><stop offset="0" stop-color="#8cffff" stop-opacity="0.7"/><stop offset="1" stop-color="#8cffff" stop-opacity="0"/></linearGradient><linearGradient id="linear-gradient-8" x1="280.8" y1="183.27" x2="192.72" y2="0.41" gradientUnits="userSpaceOnUse"><stop offset="0" stop-color="#f6c0c0" stop-opacity="0.4"/><stop offset="1" stop-color="#f6a7a7" stop-opacity="0.15"/></linearGradient><linearGradient id="linear-gradient-9" x1="289" y1="172.61" x2="358.98" y2="13.07" gradientUnits="userSpaceOnUse"><stop offset="0" stop-color="#230045" stop-opacity="0.15"/><stop offset="1" stop-color="#230045" stop-opacity="0.05"/></linearGradient></defs><title>Michel Digital final logo-11</title><path class="cls-1" d="M484.91,96.11h-54.5l-27.74,48.05h82.24a16,16,0,0,1,16,16V272.32h0a64.06,64.06,0,0,1-64.07,64.07h48.06A64.07,64.07,0,0,0,549,272.32V160.18A64.07,64.07,0,0,0,484.91,96.11Z"/><path class="cls-2" d="M140.68,0h0a48.06,48.06,0,0,1,48.06,48.06V240.28a0,0,0,0,1,0,0H140.68a0,0,0,0,1,0,0V0A0,0,0,0,1,140.68,0Z"/><path class="cls-3" d="M267.06,157.28h0L206.65,27.75A48,48,0,0,0,163.1,0H140.69l88.65,190.11a41.64,41.64,0,0,0,37.72,24h0a41.61,41.61,0,0,0,37.71-24l15.31-32.82C309.58,179.8,277.56,179.8,267.06,157.28Z"/><path class="cls-4" d="M427,53.91,393.42,86.82V0a48.06,48.06,0,0,0-48.06,48.05V195.36Z"/><path class="cls-5" d="M371,0a48.05,48.05,0,0,0-43.55,27.75l-60.4,129.53h0c10.5,22.52,42.52,22.52,53,0L393.42,0Z"/><path class="cls-6" d="M500.92,272.32h0a16,16,0,0,1-16,16H393.42V160.18h0L311.75,301.63l33.61-32.91v67.67h91.49A64.06,64.06,0,0,0,500.92,272.32Z"/><path class="cls-7" d="M500.92,160.18V272.32h0a64.06,64.06,0,0,1-64.07,64.07h17A70.09,70.09,0,0,0,524,266.3V161.75"/><polygon class="cls-8" points="320.08 157.28 313.4 171.61 313.4 171.61 320.08 157.28"/><path class="cls-9" d="M267.06,157.28h0L206.65,27.75A48,48,0,0,0,163.1,0H140.73a42.88,42.88,0,0,1,38.44,24.74l68.48,146.87c13,27.92,52.73,27.92,65.75,0l6.68-14.32C309.58,179.8,277.56,179.8,267.06,157.28Z"/><path class="cls-10" d="M393.38,0A42.86,42.86,0,0,0,355,24.74L286.46,171.61c-.24.52-.49,1-.76,1.52a28.73,28.73,0,0,1-18.64-15.84h0l60.4-129.53A48.07,48.07,0,0,1,371,0Z"/><path class="cls-11" d="M9.14,401.35l18,34.85L45,401.35h9.15v48.23h-5.3V405.86L29.75,442.23H24.38L5.3,405.73v43.85H0V401.35Z"/><path class="cls-11" d="M80.77,401.35v48.23H75.33V401.35Z"/><path class="cls-11" d="M142.78,409.5a37.73,37.73,0,0,0-16.56-3.84c-6.76,0-12.19,1.79-16.37,5.3a17.39,17.39,0,0,0-6.22,14,18.47,18.47,0,0,0,6.49,14.57c4.37,3.71,10.07,5.57,17,5.57a32.12,32.12,0,0,0,17.29-4.57v5.76q-7.05,4-17.48,4c-8.55,0-15.51-2.32-20.87-7A23,23,0,0,1,98,425.14c0-7.22,2.59-13.12,7.82-17.63s12-6.82,20.27-6.82a50.23,50.23,0,0,1,18.75,4Z"/><path class="cls-11" d="M206.78,401.35v48.23h-5.43V427.52H166.83v22.06H161.4V401.35h5.43v21.4h34.52v-21.4Z"/><path class="cls-11" d="M291.4,401.35v43.46H323v4.77H286V401.35Z"/><path class="cls-11" d="M383.62,401.35c7.75,0,14,2.19,18.68,6.63s7,10.27,7,17.62-2.32,13.12-6.89,17.49-10.74,6.49-18.42,6.49H362V401.35Zm-16.16,43.4h15.9c6.22,0,11.19-1.73,14.9-5.24s5.64-8.15,5.64-13.91S402,415,398.13,411.49s-8.88-5.3-15.17-5.3h-15.5Z"/><path class="cls-11" d="M432,401.35v48.23h-5.43V401.35Z"/><path class="cls-11" d="M500.5,445.08a48.3,48.3,0,0,1-22.2,5.17c-8.74,0-15.76-2.26-21.13-6.83s-7.95-10.53-7.95-18,2.72-13.58,8.15-18,12.72-6.69,21.93-6.69a59,59,0,0,1,20.2,4l-2.05,4.83a46.7,46.7,0,0,0-17.95-3.84c-7.62,0-13.59,1.72-18,5.23s-6.63,8.28-6.63,14.31a18.1,18.1,0,0,0,6.49,14.51q6.46,5.37,17.29,5.37a43.1,43.1,0,0,0,16.57-3.31V428.18H475.78l2-4.77H500.5Z"/><path class="cls-11" d="M525.15,401.35v48.23h-5.43V401.35Z"/><path class="cls-11" d="M583.58,401.35v4.77H563.71v43.46h-5.43V406.12H538.4v-4.77Z"/><path class="cls-11" d="M658.06,401.35v43.46h31.6v4.77h-37V401.35Z"/><rect class="cls-11" x="227.99" y="401.35" width="38.43" height="4.84"/><rect class="cls-11" x="227.99" y="423.05" width="38.43" height="4.84"/><rect class="cls-11" x="227.99" y="444.75" width="38.43" height="4.84"/><polygon class="cls-11" points="615.72 401.35 609.23 401.35 585.58 449.58 591.41 449.58 612.41 406.52 633.41 449.58 639.37 449.58 615.72 401.35"/></svg>