<?xml version="1.0" standalone="no"?>
<!DOCTYPE svg PUBLIC "-//W3C//DTD SVG 20010904//EN"
 "http://www.w3.org/TR/2001/REC-SVG-20010904/DTD/svg10.dtd">
<svg version="1.0" xmlns="http://www.w3.org/2000/svg"
 width="1702.000000pt" height="1702.000000pt" viewBox="0 0 1702.000000 1702.000000"
 preserveAspectRatio="xMidYMid meet">
<metadata>
Created by potrace 1.14, written by Peter Selinger 2001-2017
</metadata>
<g transform="translate(0.000000,1702.000000) scale(0.100000,-0.100000)"
fill="#000000" stroke="none">
<path d="M0 10516 l0 -5006 25 -1 c14 0 459 0 990 0 531 0 971 0 978 0 10 1
12 573 12 2857 l0 2856 27 -59 c94 -200 121 -257 158 -337 23 -49 54 -116 70
-150 55 -120 238 -513 294 -630 31 -65 56 -120 56 -121 0 -2 50 -109 145 -310
56 -120 105 -225 134 -289 18 -37 77 -166 133 -285 94 -202 123 -263 211 -451
74 -158 180 -387 202 -435 12 -27 44 -95 69 -150 26 -55 56 -118 66 -140 164
-354 244 -497 348 -625 76 -94 242 -249 343 -321 214 -153 516 -275 754 -304
28 -4 64 -9 80 -12 35 -5 301 -5 330 1 11 2 51 7 90 11 38 4 72 8 76 10 3 2
21 7 40 10 179 31 434 139 609 258 252 172 484 444 603 707 16 36 47 103 69
150 22 47 69 148 105 225 65 140 85 183 183 390 28 61 61 130 72 155 12 25 41
88 65 140 45 94 177 380 298 640 34 74 81 175 104 223 23 49 70 150 105 225
35 75 85 182 111 237 26 55 58 125 72 155 28 61 64 139 128 275 92 196 106
226 203 435 16 36 50 108 74 160 25 52 55 119 69 149 l24 54 5 -1915 5 -1915
245 425 c135 234 270 468 301 521 53 92 303 523 339 586 9 17 120 208 245 425
125 217 237 411 248 430 11 19 43 76 72 125 84 143 155 268 155 272 0 2 18 32
39 66 21 34 67 112 101 172 35 61 70 124 80 140 97 168 140 243 185 320 29 50
62 106 73 125 30 54 133 232 153 265 11 17 22 36 25 44 7 13 24 43 177 306 38
66 77 134 87 151 10 17 71 123 136 235 64 112 150 260 189 329 40 69 86 149
104 178 17 29 31 57 31 62 0 4 3 10 8 12 4 2 14 17 23 33 9 17 82 145 163 285
82 140 164 284 183 320 l35 65 -118 -116 c-66 -64 -169 -166 -230 -225 -61
-60 -274 -269 -474 -464 -472 -463 -570 -558 -571 -556 -1 0 -2 811 -3 1801
l-1 1800 -560 0 c-491 0 -646 -4 -705 -20 -8 -2 -31 -7 -50 -10 -19 -3 -71
-15 -115 -26 -449 -113 -847 -384 -1131 -769 -85 -116 -165 -263 -284 -525
-13 -27 -49 -106 -81 -174 -33 -68 -59 -125 -59 -126 0 -2 -32 -69 -70 -150
-38 -81 -70 -148 -70 -150 0 -1 -23 -52 -51 -111 -49 -104 -84 -178 -151 -324
-56 -120 -95 -204 -138 -295 -23 -49 -57 -121 -75 -160 -18 -38 -79 -169 -135
-290 -56 -121 -116 -249 -132 -285 -41 -89 -90 -192 -159 -339 -33 -67 -59
-125 -59 -126 0 -2 -26 -59 -59 -127 -32 -68 -70 -149 -85 -180 -28 -64 -73
-160 -147 -316 -27 -56 -49 -105 -49 -107 0 -3 -22 -50 -50 -105 -27 -55 -50
-104 -51 -108 -3 -10 -58 -130 -109 -237 -41 -86 -76 -161 -135 -290 -15 -33
-54 -116 -86 -183 -33 -68 -59 -125 -59 -127 0 -1 -22 -49 -49 -106 -75 -161
-182 -389 -218 -468 -14 -30 -52 -111 -85 -180 l-60 -126 -24 50 c-55 114
-154 326 -154 330 0 2 -25 57 -56 122 -89 187 -116 245 -217 463 -52 113 -113
243 -135 290 -103 219 -142 302 -142 305 0 1 -26 58 -59 126 -32 68 -70 149
-83 179 -26 56 -74 159 -143 305 -21 44 -48 103 -60 130 -13 28 -48 103 -79
169 -31 65 -56 119 -56 121 0 1 -29 63 -64 136 -35 74 -73 157 -86 184 -12 28
-56 121 -96 207 -41 86 -87 185 -103 220 -37 81 -89 191 -216 463 -26 55 -67
145 -92 200 -25 55 -49 105 -53 110 -5 6 -19 37 -33 70 -14 33 -52 116 -85
185 -32 69 -71 150 -84 180 -58 125 -160 343 -217 464 -33 70 -61 130 -61 131
0 5 -129 275 -162 340 -28 55 -145 243 -158 255 -3 3 -25 30 -49 60 -200 255
-511 485 -826 610 -80 32 -259 87 -310 96 -16 2 -37 7 -45 9 -8 2 -35 7 -60
11 -25 3 -56 8 -70 11 -14 4 -287 8 -607 10 l-583 4 0 -5005z"/>
<path d="M12059 11491 c-9 -14 -152 -262 -318 -551 -167 -289 -311 -536 -319
-550 -9 -14 -17 -27 -17 -30 0 -3 -8 -16 -17 -30 -9 -14 -77 -131 -151 -260
-74 -129 -164 -286 -201 -349 -36 -62 -66 -115 -66 -117 0 -3 -11 -22 -25 -44
-14 -22 -25 -42 -25 -44 0 -3 784 -5 1743 -5 958 0 1760 -3 1781 -6 22 -4 50
-11 63 -16 13 -5 23 -7 23 -4 0 4 48 -14 110 -43 43 -19 131 -83 175 -126 95
-93 160 -218 185 -357 16 -86 15 -4826 -1 -4909 -33 -175 -145 -340 -293 -435
-59 -38 -155 -79 -207 -89 -19 -3 -45 -8 -59 -11 -18 -4 -3693 -9 -3885 -5
-20 0 -20 6 -19 2658 0 1461 -2 2661 -4 2665 -4 8 -45 -58 -125 -203 -17 -30
-55 -95 -84 -144 -29 -49 -53 -90 -53 -92 0 -2 -17 -32 -38 -66 -21 -35 -41
-70 -45 -78 -4 -8 -18 -33 -31 -55 -14 -22 -31 -51 -39 -65 -7 -14 -81 -142
-164 -285 -83 -143 -161 -278 -173 -300 -13 -22 -34 -60 -48 -85 -14 -25 -43
-73 -64 -108 -21 -34 -38 -65 -38 -67 0 -3 -11 -22 -23 -43 -13 -20 -86 -145
-162 -277 -321 -557 -359 -621 -375 -650 -35 -63 -216 -375 -277 -478 -35 -59
-63 -110 -63 -113 0 -3 -8 -18 -19 -32 -10 -15 -29 -47 -43 -72 -14 -25 -51
-90 -83 -145 -106 -183 -196 -338 -315 -545 -65 -113 -126 -219 -136 -237 -11
-18 -51 -87 -90 -155 -39 -68 -115 -199 -169 -293 -54 -93 -106 -184 -116
-202 -10 -17 -29 -50 -43 -72 -15 -22 -26 -43 -26 -46 0 -2 -16 -29 -35 -59
-19 -30 -35 -58 -35 -61 0 -3 -11 -22 -23 -43 -13 -20 -36 -58 -50 -84 -15
-27 -39 -69 -54 -95 -14 -27 -36 -64 -48 -83 -12 -19 -33 -55 -47 -80 -14 -25
-51 -89 -82 -142 -31 -54 -81 -142 -112 -195 -30 -54 -59 -102 -65 -107 -5 -6
-9 -14 -9 -20 0 -5 69 58 153 142 83 83 209 206 279 274 178 173 829 811 898
881 31 31 60 57 64 57 3 0 6 -632 6 -1403 l0 -1404 3023 2 c3365 2 3070 -4
3417 70 51 11 214 60 294 89 167 61 380 167 541 270 179 115 422 328 559 490
22 27 46 54 51 60 37 40 161 217 212 301 201 335 306 632 368 1045 17 111 19
448 19 2675 0 2198 -3 2587 -18 2675 -2 14 -7 46 -10 71 -50 362 -207 762
-429 1094 -277 413 -719 776 -1170 960 -34 14 -71 30 -82 35 -89 42 -395 123
-540 144 -16 2 -52 7 -80 11 -27 4 -66 10 -85 12 -19 3 -595 7 -1280 8 l-1246
3 -15 -27z"/>
</g>
</svg>
